<?xml version="1.0" standalone="no"?>
<!DOCTYPE svg PUBLIC "-//W3C//DTD SVG 20010904//EN"
 "http://www.w3.org/TR/2001/REC-SVG-20010904/DTD/svg10.dtd">
<svg version="1.0" xmlns="http://www.w3.org/2000/svg"
 width="344.000000pt" height="614.000000pt" viewBox="0 0 344.000000 614.000000"
 preserveAspectRatio="xMidYMid meet">

<g transform="translate(0.000000,614.000000) scale(0.100000,-0.100000)"
fill="#000000" stroke="none">
<path d="M0 5504 c0 -349 4 -633 8 -630 4 2 45 10 91 16 98 13 225 1 316 -30
31 -11 62 -17 68 -13 5 3 7 2 4 -4 -3 -5 11 -15 31 -23 20 -7 43 -19 50 -27 8
-8 21 -12 29 -9 8 3 12 2 9 -3 -3 -5 9 -20 27 -34 158 -123 256 -289 293 -499
26 -151 5 -325 -56 -452 -84 -176 -252 -321 -442 -381 -103 -32 -266 -43 -361
-23 l-67 15 2 -441 3 -440 200 -141 c110 -77 252 -171 315 -209 310 -188 391
-239 386 -243 -3 -3 -63 30 -133 72 -70 43 -139 85 -153 93 -53 33 0 -9 113
-88 65 -45 116 -85 113 -87 -2 -2 -89 56 -192 130 -510 362 -645 457 -649 457
-3 0 -5 -24 -5 -53 l0 -52 410 -253 c361 -223 413 -251 431 -241 15 8 24 8 32
0 13 -13 -127 -153 -147 -145 -17 6 -36 48 -36 77 0 18 9 25 51 37 l52 15
-392 242 c-215 134 -393 243 -396 243 -3 0 -5 -535 -5 -1190 l0 -1190 1720 0
1720 0 0 2507 c0 1982 -3 2509 -13 2521 -9 13 -9 14 1 8 9 -6 12 63 12 333 0
262 -3 340 -13 344 -9 4 -9 6 1 6 9 1 12 50 12 211 l0 210 -146 0 -147 0 6
-77 c5 -52 4 -73 -3 -63 -5 8 -10 43 -10 78 l0 62 -1570 0 -1570 0 0 -636z
m3311 543 c-6 -6 -11 -33 -11 -59 0 -26 -4 -48 -9 -48 -13 0 -2 129 12 145 10
10 13 9 15 -7 2 -11 -1 -25 -7 -31z m108 -36 c0 -10 -4 -7 -10 8 -5 14 -13 30
-17 36 -4 6 1 2 11 -8 9 -11 17 -27 16 -36z m-79 -9 c0 -21 -2 -24 -10 -12
-13 20 -13 53 0 45 6 -3 10 -18 10 -33z m6 -69 c-10 -10 -19 5 -10 18 6 11 8
11 12 0 2 -7 1 -15 -2 -18z m-158 -43 c0 -9 -3 -7 -8 5 -5 11 -8 29 -8 40 0
16 2 15 8 -5 4 -14 8 -32 8 -40z m40 -85 c-3 -3 -9 2 -12 12 -6 14 -5 15 5 6
7 -7 10 -15 7 -18z m-103 5 c3 -5 1 -10 -4 -10 -6 0 -11 5 -11 10 0 6 2 10 4
10 3 0 8 -4 11 -10z m-504 -327 c13 -17 13 -17 -6 -3 -11 8 -22 16 -24 17 -2
2 0 3 6 3 6 0 17 -8 24 -17z m298 -19 c6 -14 11 -28 11 -32 0 -9 -49 51 -50
60 0 16 28 -5 39 -28z m-1704 -12 c-3 -3 -11 0 -18 7 -9 10 -8 11 6 5 10 -3
15 -9 12 -12z m1070 -72 c4 -6 -6 -7 -27 -3 -44 8 -48 13 -10 13 17 0 34 -4
37 -10z m1135 6 c0 -3 -4 -8 -10 -11 -5 -3 -10 -1 -10 4 0 6 5 11 10 11 6 0
10 -2 10 -4z m-49 -36 c-13 -11 -33 -20 -45 -20 -17 1 -14 4 14 20 45 25 61
25 31 0z m-1152 -94 c8 -6 35 -16 60 -22 45 -11 46 -11 17 -19 -22 -6 -39 -2
-73 16 -55 30 -80 56 -43 44 14 -4 31 -13 39 -19z m-38 -53 c13 -16 12 -17 -3
-4 -10 7 -18 15 -18 17 0 8 8 3 21 -13z m-1446 -21 c-3 -3 -11 0 -18 7 -9 10
-8 11 6 5 10 -3 15 -9 12 -12z m389 -17 c-4 -8 -8 -15 -10 -15 -2 0 -4 7 -4
15 0 8 4 15 10 15 5 0 7 -7 4 -15z m-459 -55 c3 -5 1 -10 -4 -10 -6 0 -11 5
-11 10 0 6 2 10 4 10 3 0 8 -4 11 -10z m219 -5 c-4 -8 -11 -12 -16 -9 -6 4 -5
10 3 15 19 12 19 11 13 -6z m-144 -5 c10 -6 11 -10 3 -10 -22 0 -15 -47 7 -53
24 -6 25 -20 4 -41 -18 -19 -34 -21 -34 -5 0 7 -8 18 -17 26 -13 10 -15 16 -5
19 6 3 12 14 12 24 0 10 5 22 11 26 8 4 7 9 -2 15 -8 5 -9 9 -4 9 6 0 17 -5
25 -10z m61 -3 c-1 -12 -15 -9 -19 4 -3 6 1 10 8 8 6 -3 11 -8 11 -12z m208
-3 c10 -9 -45 -3 -59 6 -11 7 -5 8 20 4 19 -4 37 -8 39 -10z m121 6 c0 -5 -2
-10 -4 -10 -3 0 -8 5 -11 10 -3 6 -1 10 4 10 6 0 11 -4 11 -10z m-500 -10 c0
-5 -4 -10 -10 -10 -5 0 -10 5 -10 10 0 6 5 10 10 10 6 0 10 -4 10 -10z m47
-16 c2 -5 -6 -10 -17 -10 -20 0 -25 7 -13 20 9 8 26 3 30 -10z m90 -16 c-3 -8
-6 -5 -6 6 -1 11 2 17 5 13 3 -3 4 -12 1 -19z m283 1 c0 -6 -4 -7 -10 -4 -5 3
-10 11 -10 16 0 6 5 7 10 4 6 -3 10 -11 10 -16z m197 15 c-3 -3 -12 -4 -19 -1
-8 3 -5 6 6 6 11 1 17 -2 13 -5z m-637 -20 c0 -2 -7 -4 -15 -4 -8 0 -15 4 -15
10 0 5 7 7 15 4 8 -4 15 -8 15 -10z m529 -28 c1 -4 -6 -5 -15 -2 -12 4 -14 1
-9 -14 4 -11 2 -20 -4 -20 -6 0 -11 6 -11 14 0 8 -6 17 -12 19 -9 4 -5 12 12
26 23 18 26 19 32 3 4 -9 7 -21 7 -26z m-309 24 c0 -5 -5 -10 -11 -10 -5 0 -7
5 -4 10 3 6 8 10 11 10 2 0 4 -4 4 -10z m135 -19 c-3 -6 -11 -11 -16 -11 -5 0
-4 6 3 14 14 16 24 13 13 -3z m1620 9 c-44 -11 -67 -11 -60 0 3 6 25 9 48 9
40 -1 40 -2 12 -9z m108 3 c-7 -2 -21 -2 -30 0 -10 3 -4 5 12 5 17 0 24 -2 18
-5z m-1514 -24 c-22 -13 -31 -11 -17 5 7 8 17 12 22 9 4 -3 2 -9 -5 -14z
m1299 6 c-11 -11 -68 -23 -68 -15 0 5 10 11 23 13 35 7 51 7 45 2z m-1408 -18
c0 -9 -12 -14 -30 -15 -36 -1 -38 5 -7 18 31 12 37 12 37 -3z m-590 -7 c0 -5
-5 -10 -11 -10 -5 0 -7 5 -4 10 3 6 8 10 11 10 2 0 4 -4 4 -10z m1920 5 c0 -8
-92 -47 -97 -42 -4 5 77 47 90 47 4 0 7 -2 7 -5z m-1756 -13 c2 -4 -4 -8 -14
-9 -11 -1 -22 2 -25 8 -4 5 3 9 14 9 11 0 22 -4 25 -8z m494 -12 c-7 -10 -14
-18 -15 -16 -6 6 9 36 18 36 5 0 4 -9 -3 -20z m97 10 c-3 -5 -13 -10 -21 -10
-8 0 -14 5 -14 10 0 6 9 10 21 10 11 0 17 -4 14 -10z m-540 -10 c3 -5 -1 -10
-10 -10 -9 0 -13 5 -10 10 3 6 8 10 10 10 2 0 7 -4 10 -10z m-99 -27 c-6 -6
-36 9 -36 18 0 5 9 4 20 -3 10 -7 18 -14 16 -15z m204 17 c0 -5 -7 -10 -15
-10 -8 0 -15 5 -15 10 0 6 7 10 15 10 8 0 15 -4 15 -10z m130 0 c0 -5 -7 -10
-15 -10 -8 0 -15 5 -15 10 0 6 7 10 15 10 8 0 15 -4 15 -10z m367 4 c-3 -3
-12 -4 -19 -1 -8 3 -5 6 6 6 11 1 17 -2 13 -5z m-543 -19 c-4 -8 -10 -15 -14
-15 -4 0 -7 -17 -6 -37 1 -34 4 -38 27 -35 34 3 69 -31 69 -68 0 -44 -25 -38
-27 6 -2 43 -5 46 -40 49 -16 1 -38 3 -51 3 -13 1 -20 7 -17 12 4 6 11 8 16 5
5 -4 9 5 9 18 0 16 -5 23 -17 23 -10 -1 -19 3 -20 8 -1 5 -7 12 -14 17 -8 4
-10 11 -6 15 3 4 13 1 22 -6 12 -10 19 -10 37 3 29 20 39 21 32 2z m286 0 c0
-8 -4 -15 -9 -15 -13 0 -22 16 -14 24 11 11 23 6 23 -9z m140 0 c7 -9 8 -15 2
-15 -5 0 -12 7 -16 15 -3 8 -4 15 -2 15 2 0 9 -7 16 -15z m1620 5 c-8 -5 -24
-10 -35 -10 -17 0 -17 2 -5 10 8 5 24 10 35 10 17 0 17 -2 5 -10z m-2163 -6
c-3 -3 -12 -4 -19 -1 -8 3 -5 6 6 6 11 1 17 -2 13 -5z m433 2 c0 -3 -4 -8 -10
-11 -5 -3 -10 -1 -10 4 0 6 5 11 10 11 6 0 10 -2 10 -4z m1660 -6 c11 -7 9
-11 -14 -19 -15 -6 -32 -8 -38 -5 -7 4 -8 2 -4 -4 4 -7 1 -13 -6 -13 -7 -1
-22 -3 -34 -4 -11 -1 -32 -10 -47 -20 -15 -10 -30 -16 -33 -13 -7 8 77 62 116
74 45 15 43 15 60 4z m-2170 -10 c0 -5 -7 -10 -15 -10 -8 0 -15 5 -15 10 0 6
7 10 15 10 8 0 15 -4 15 -10z m390 -5 c-7 -9 -15 -13 -17 -11 -7 7 7 26 19 26
6 0 6 -6 -2 -15z m-340 -5 c0 -5 -2 -10 -4 -10 -3 0 -8 5 -11 10 -3 6 -1 10 4
10 6 0 11 -4 11 -10z m408 -1 c-2 -6 -8 -10 -13 -10 -5 0 -11 4 -13 10 -2 6 4
11 13 11 9 0 15 -5 13 -11z m66 -5 c3 -8 2 -12 -4 -9 -6 3 -10 10 -10 16 0 14
7 11 14 -7z m-817 0 c-3 -3 -12 -4 -19 -1 -8 3 -5 6 6 6 11 1 17 -2 13 -5z
m393 2 c0 -3 -4 -8 -10 -11 -5 -3 -10 -1 -10 4 0 6 5 11 10 11 6 0 10 -2 10
-4z m567 -2 c-3 -3 -12 -4 -19 -1 -8 3 -5 6 6 6 11 1 17 -2 13 -5z m-29 -16
c20 -20 13 -28 -13 -16 -14 6 -25 15 -25 20 0 12 24 10 38 -4z m-788 -8 c-8
-5 -19 -10 -25 -10 -5 0 -3 5 5 10 8 5 20 10 25 10 6 0 3 -5 -5 -10z m640 -9
c0 -14 -5 -18 -20 -14 -23 6 -26 19 -7 26 22 9 27 7 27 -12z m270 3 c0 -2 -7
-4 -15 -4 -8 0 -15 4 -15 10 0 5 7 7 15 4 8 -4 15 -8 15 -10z m1220 7 c0 -13
-90 -64 -98 -56 -4 4 -1 10 6 12 7 3 25 16 40 29 28 24 52 31 52 15z m-1935
-11 c-3 -5 -11 -10 -16 -10 -6 0 -7 5 -4 10 3 6 11 10 16 10 6 0 7 -4 4 -10z
m330 0 c3 -5 -3 -10 -14 -10 -12 0 -21 5 -21 10 0 6 6 10 14 10 8 0 18 -4 21
-10z m165 -10 c0 -5 -7 -10 -15 -10 -8 0 -15 5 -15 10 0 6 7 10 15 10 8 0 15
-4 15 -10z m70 0 c0 -5 -3 -10 -7 -10 -5 0 -19 -3 -33 -6 l-25 -6 25 15 c31
18 40 20 40 7z m126 -28 c-4 -3 -11 0 -16 8 -15 24 -11 33 6 15 9 -9 13 -19
10 -23z m-656 18 c0 -5 -4 -10 -10 -10 -5 0 -10 5 -10 10 0 6 5 10 10 10 6 0
10 -4 10 -10z m1785 0 c3 -5 -9 -19 -27 -30 -48 -29 -58 -24 -18 10 41 34 37
33 45 20z m-1894 -27 c13 -15 12 -15 -8 -4 -24 12 -29 21 -14 21 5 0 15 -7 22
-17z m429 -30 c0 -7 -6 -13 -14 -13 -14 0 -28 45 -17 55 7 8 31 -25 31 -42z
m320 15 c0 -6 -7 -5 -15 2 -8 7 -15 17 -15 22 0 6 7 5 15 -2 8 -7 15 -17 15
-22z m-250 -28 c1 8 2 23 1 33 -2 11 5 17 18 17 12 0 21 -7 21 -15 0 -8 5 -15
10 -15 6 0 10 6 10 13 0 6 12 13 27 14 22 1 24 -1 10 -8 -21 -12 -22 -38 -2
-45 17 -7 21 -54 5 -54 -5 0 -10 6 -10 14 0 19 -12 26 -50 31 -31 4 -38 -7
-20 -35 8 -12 10 -10 10 9 0 18 3 21 13 12 8 -6 17 -8 20 -4 4 3 7 -8 7 -25 0
-18 5 -32 10 -32 6 0 10 5 10 11 0 5 10 9 23 7 18 -2 23 2 25 25 2 15 8 27 13
27 6 0 8 -4 4 -9 -3 -5 -1 -12 5 -16 5 -3 10 -14 10 -24 0 -14 -10 -20 -40
-25 -47 -7 -55 -34 -12 -42 16 -3 32 -16 40 -32 11 -24 10 -29 -8 -44 -25 -20
-25 -23 0 -48 11 -11 20 -15 20 -10 0 6 5 10 12 10 8 0 6 -7 -5 -17 -14 -15
-19 -16 -26 -4 -5 7 -24 15 -42 16 -19 2 -37 4 -40 4 -8 1 -23 49 -27 89 -1 6
-8 12 -16 12 -9 0 -12 -8 -8 -26 4 -22 2 -25 -14 -21 -53 15 -74 17 -74 7 0
-18 -18 -10 -23 11 -4 15 -2 19 9 15 9 -3 14 1 14 14 0 11 5 20 11 20 6 0 9
-7 5 -15 -3 -9 0 -15 9 -15 25 0 26 20 2 42 -13 13 -27 33 -31 46 -6 18 -4 22
15 22 18 0 20 3 11 12 -8 8 -21 9 -47 1 -28 -9 -35 -8 -35 2 0 7 -6 15 -12 18
-7 2 20 3 60 2 48 -1 69 2 62 9 -12 12 -13 49 -2 60 4 4 10 -7 13 -26 4 -18 7
-26 9 -18z m210 39 c0 -6 -9 -9 -20 -6 -11 3 -20 1 -20 -4 0 -5 5 -9 10 -9 18
0 10 -19 -10 -25 -26 -8 -80 3 -80 17 0 6 3 8 7 5 3 -4 12 -2 20 5 11 8 17 7
28 -8 14 -18 14 -18 15 2 0 11 3 24 7 27 11 11 43 8 43 -4z m-387 -14 c-3 -9
-8 -14 -10 -11 -3 3 -2 9 2 15 9 16 15 13 8 -4z m47 -15 c0 -5 -4 -10 -10 -10
-5 0 -10 5 -10 10 0 6 5 10 10 10 6 0 10 -4 10 -10z m349 -20 c-6 -16 -15 -30
-21 -30 -6 0 -7 7 -4 16 3 9 6 22 6 30 0 8 7 14 14 14 12 0 13 -6 5 -30z
m1406 9 c-76 -30 -145 -49 -145 -40 0 13 47 34 59 27 6 -4 17 -4 24 1 20 13
71 31 92 31 11 1 -2 -8 -30 -19z m-1335 1 c0 -5 -7 -10 -16 -10 -8 0 -12 5 -9
10 3 6 10 10 16 10 5 0 9 -4 9 -10z m1117 -36 c-3 -3 -12 -4 -19 -1 -8 3 -5 6
6 6 11 1 17 -2 13 -5z m-1528 -52 c14 -11 13 -13 -7 -19 -14 -3 -21 -11 -18
-19 3 -8 1 -14 -4 -14 -6 0 -10 7 -10 15 0 18 -26 20 -33 3 -3 -8 -6 -6 -6 5
-1 12 7 17 24 17 20 0 25 5 26 28 0 15 3 20 6 12 3 -8 13 -21 22 -28z m336 28
c3 -5 -1 -10 -10 -10 -9 0 -13 5 -10 10 3 6 8 10 10 10 2 0 7 -4 10 -10z
m-380 -10 c-3 -5 -12 -10 -20 -10 -8 0 -17 5 -20 10 -4 6 5 10 20 10 15 0 24
-4 20 -10z m478 -38 c-2 -6 8 -14 22 -18 14 -3 22 -10 20 -15 -8 -12 -37 1
-63 28 l-22 24 22 -3 c13 -2 22 -9 21 -16z m62 0 c-3 -3 -11 0 -18 7 -9 10 -8
11 6 5 10 -3 15 -9 12 -12z m-445 -10 c-1 -22 -18 -32 -41 -23 -15 6 -18 10
-8 10 9 1 20 8 23 17 5 14 26 11 26 -4z m317 12 c-3 -3 -12 -4 -19 -1 -8 3 -5
6 6 6 11 1 17 -2 13 -5z m-87 -14 c0 -5 -4 -10 -10 -10 -5 0 -10 5 -10 10 0 6
5 10 10 10 6 0 10 -4 10 -10z m85 -10 c4 -6 -5 -10 -19 -10 -14 0 -26 5 -26
10 0 6 9 10 19 10 11 0 23 -4 26 -10z m1785 -45 c0 -5 -5 -3 -10 5 -5 8 -10
20 -10 25 0 6 5 3 10 -5 5 -8 10 -19 10 -25z m-1720 15 c0 -5 -7 -10 -16 -10
-8 0 -12 5 -9 10 3 6 10 10 16 10 5 0 9 -4 9 -10z m-110 -10 c8 -5 11 -10 5
-11 -5 -1 4 -5 20 -9 l30 -7 -34 -9 c-19 -6 -36 -15 -39 -22 -3 -9 3 -10 23
-2 34 13 35 13 29 -5 -5 -11 1 -15 21 -15 27 0 31 -20 5 -28 -8 -3 -10 0 -5 8
5 9 2 10 -15 5 -15 -5 -20 -4 -16 4 5 7 -3 11 -21 11 -47 0 -56 13 -31 40 15
16 18 25 10 28 -13 4 -17 22 -4 22 4 0 14 -5 22 -10z m140 0 c0 -5 -5 -10 -11
-10 -5 0 -7 5 -4 10 3 6 8 10 11 10 2 0 4 -4 4 -10z m-10 -42 c0 -17 -20 -47
-20 -31 0 6 -12 13 -27 15 l-28 4 25 11 c34 16 50 16 50 1z m77 -10 c-3 -8 -6
-5 -6 6 -1 11 2 17 5 13 3 -3 4 -12 1 -19z m-87 -53 c0 -8 -4 -15 -9 -15 -5 0
-11 7 -15 15 -3 9 0 15 9 15 8 0 15 -7 15 -15z m-195 -15 c-3 -5 -12 -7 -20
-3 -21 7 -19 13 6 13 11 0 18 -4 14 -10z m160 -20 c3 -5 -3 -10 -15 -10 -12 0
-18 5 -15 10 3 6 10 10 15 10 5 0 12 -4 15 -10z m-148 -6 c-3 -3 -12 -4 -19
-1 -8 3 -5 6 6 6 11 1 17 -2 13 -5z m199 -12 c-22 -3 -26 -6 -15 -13 9 -5 10
-9 2 -9 -18 0 -27 21 -13 30 7 4 22 5 34 1 18 -5 17 -6 -8 -9z m-106 -12 c0
-5 -2 -10 -4 -10 -3 0 -8 5 -11 10 -3 6 -1 10 4 10 6 0 11 -4 11 -10z m1865
-20 c-16 -16 -31 -27 -34 -24 -6 6 45 54 56 54 4 0 -6 -13 -22 -30z m-55 -54
c0 -2 -8 -10 -17 -17 -16 -13 -17 -12 -4 4 13 16 21 21 21 13z m-1730 -26 c0
-5 -7 -7 -15 -4 -8 4 -15 8 -15 10 0 2 7 4 15 4 8 0 15 -4 15 -10z m1680 -44
c0 -3 -4 -8 -10 -11 -5 -3 -10 -1 -10 4 0 6 5 11 10 11 6 0 10 -2 10 -4z m-50
-76 c0 -5 -2 -10 -4 -10 -3 0 -8 5 -11 10 -3 6 -1 10 4 10 6 0 11 -4 11 -10z
m45 -210 c3 -5 1 -10 -4 -10 -6 0 -11 5 -11 10 0 6 2 10 4 10 3 0 8 -4 11 -10z
m-2509 -750 c49 -190 66 -279 59 -308 -6 -27 -10 -30 -67 -36 -122 -12 -125
-9 -152 130 -8 43 -24 116 -35 162 -11 46 -18 89 -15 97 5 13 132 44 169 42
16 -2 24 -17 41 -87z m797 -1576 c536 -320 525 -314 498 -314 -13 0 -38 8 -55
19 -225 136 -795 487 -806 497 -8 8 -11 14 -7 14 4 0 171 -97 370 -216z m-181
31 c250 -179 254 -182 247 -190 -4 -3 -93 49 -200 116 -217 135 -204 127 -196
135 3 3 29 -10 59 -29 136 -87 124 -69 -22 33 -115 80 -135 96 -108 87 10 -3
109 -72 220 -152z m-212 109 c22 -15 40 -31 40 -36 0 -6 -10 -4 -22 4 -13 8
-33 21 -45 29 -21 13 -31 29 -18 29 3 0 23 -12 45 -26z m-230 -29 c0 -2 -13
-11 -30 -20 -38 -19 -40 -11 -2 9 31 17 32 18 32 11z m250 -92 c0 -33 -44
-155 -58 -161 -8 -3 -19 2 -24 11 -5 10 -15 17 -22 17 -8 0 -19 7 -26 15 -10
12 -3 25 42 74 53 60 88 77 88 44z m580 -265 c55 -39 98 -74 95 -76 -4 -4
-205 136 -205 144 0 9 15 0 110 -68z m-610 -15 c-1 -58 -34 -178 -51 -181 -8
-1 -29 11 -47 28 l-33 30 21 28 c11 15 37 50 58 79 20 29 40 52 45 53 4 0 7
-17 7 -37z"/>
<path d="M730 5009 c0 -5 5 -7 10 -4 6 3 10 8 10 11 0 2 -4 4 -10 4 -5 0 -10
-5 -10 -11z"/>
<path d="M970 4720 c0 -5 5 -10 10 -10 6 0 10 5 10 10 0 6 -4 10 -10 10 -5 0
-10 -4 -10 -10z"/>
<path d="M1033 4712 c-18 -3 -20 -6 -11 -16 10 -11 15 -10 26 1 17 17 14 20
-15 15z"/>
<path d="M1070 4671 c0 -6 4 -13 10 -16 6 -3 7 1 4 9 -7 18 -14 21 -14 7z"/>
<path d="M1134 4624 c5 -27 13 -40 20 -33 7 7 -6 59 -15 59 -5 0 -7 -12 -5
-26z"/>
<path d="M1008 4613 c6 -2 18 -2 25 0 6 3 1 5 -13 5 -14 0 -19 -2 -12 -5z"/>
<path d="M52 4829 l-52 -11 2 -670 3 -670 60 -7 c33 -3 110 -6 171 -5 189 2
330 61 454 191 80 83 122 148 150 232 126 377 -76 792 -445 917 -91 30 -250
41 -343 23z m563 -1209 c-24 -38 -160 -102 -251 -116 -71 -12 -202 -7 -252 8
-40 13 -34 14 105 14 164 0 235 16 335 72 57 32 73 38 63 22z"/>
</g>
</svg>
